# xmcd
#
# Track frame offsets: 
#        150
#        16371
#        32043
#        49422
#        58580
#        76331
#        96671
#        107760
#        125620
#        139968
#        156665
#        168240
#        190597
#        208395
#        219495
#
# Disc length: 3142 seconds
#
# Revision: 8
# Processed by: cddbd v1.5.2PL0 Copyright (c) Steve Scherf et al.
# Submitted via: ExactAudioCopy v1.0b3
#
DISCID=e20c440f
DTITLE=Mes souliers sont rouges - En dehors des clous
DYEAR=1998
DGENRE=Folk
TTITLE0=Mon père a fait bâtir maison
TTITLE1=Le moine confesseur
TTITLE2=Bassin d'Irlande
TTITLE3=Les chemins de la Guerre
TTITLE4=Le marchand de velours
TTITLE5=J'suis v'nu proche
TTITLE6=Bonsoir le maître de la maison
TTITLE7=Courant D'Eire
TTITLE8=La fille du boulanger
TTITLE9=Pauvre vieille
TTITLE10=La petite graine
TTITLE11=La fille du geôlier suivi du Reel du Touniquet
TTITLE12=L'Arbre est dans ses feuilles
TTITLE13=J'aime le vin
TTITLE14=Nous sommes partis pour voyager suivi du Reel de l'Effrontée
EXTD=sortie - 14 novembre 1998 \nproduit par Sirop d'Erable Production
EXTD=\ndistribué par l'Autre Distribution (+33 2 47 5079 79) \nréfére
EXTD=nce - MSSR 003 \n\n\n YEAR: 1998
EXTT0=
EXTT1=
EXTT2=
EXTT3=
EXTT4=
EXTT5=
EXTT6=
EXTT7=
EXTT8=
EXTT9=
EXTT10=
EXTT11=
EXTT12=
EXTT13=
EXTT14=
PLAYORDER=
